# xmcd
#
# Track frame offsets: 
#        150
#        14017
#        33740
#        49870
#        74652
#        85500
#        103947
#        132757
#        151357
#        166192
#        176032
#        190435
#
# Disc length: 2816 seconds
#
# Revision: 5
# Processed by: cddbd v1.5.2PL0 Copyright (c) Steve Scherf et al.
# Submitted via: ExactAudioCopy v0.95b4
#
DISCID=a70afe0c
DTITLE=Hans Theessink - Titanic
DYEAR=1983
DGENRE=Blues
TTITLE0=Weary Blues From Waitin'
TTITLE1=River's Invitation
TTITLE2=Down Where The Drunkards Roll
TTITLE3=a. John Hurt, b. Creole Belle
TTITLE4=Goodbye Monday Blues
TTITLE5=Mississippi You're On My Mind
TTITLE6=Titanic
TTITLE7=L.A.Freeway
TTITLE8=Shake Hands With The Sun
TTITLE9=Play It Again Sam (Instrumental)
TTITLE10=Aragon Mill
TTITLE11=a. Almost Every Circumstance, b. Witte Wieve
EXTD=YEAR: 1983
EXTT0=
EXTT1=
EXTT2=
EXTT3=
EXTT4=
EXTT5=
EXTT6=
EXTT7=
EXTT8=
EXTT9=
EXTT10=
EXTT11=
PLAYORDER=
